<svg xmlns="http://www.w3.org/2000/svg" xmlns:xlink="http://www.w3.org/1999/xlink" width="500" zoomAndPan="magnify" viewBox="0 0 375 374.999991" height="500" preserveAspectRatio="xMidYMid meet" version="1.0"><defs><g/><clipPath id="225cfe8abc"><path d="M 187.5 0 L 205.691406 15.386719 L 226.699219 4.097656 L 241.273438 22.90625 L 264.183594 16.210938 L 274.507812 37.625 L 298.316406 35.808594 L 303.9375 58.890625 L 327.605469 62.039062 L 328.28125 85.777344 L 350.773438 93.75 L 346.472656 117.109375 L 366.804688 129.558594 L 357.714844 151.519531 L 375 167.902344 L 361.515625 187.5 L 375 207.097656 L 357.714844 223.480469 L 366.804688 245.441406 L 346.472656 257.890625 L 350.773438 281.25 L 328.28125 289.222656 L 327.605469 312.960938 L 303.9375 316.109375 L 298.316406 339.191406 L 274.507812 337.375 L 264.183594 358.789062 L 241.273438 352.09375 L 226.699219 370.902344 L 205.691406 359.613281 L 187.5 375 L 169.308594 359.613281 L 148.300781 370.902344 L 133.726562 352.09375 L 110.816406 358.789062 L 100.492188 337.375 L 76.683594 339.191406 L 71.0625 316.109375 L 47.394531 312.960938 L 46.71875 289.222656 L 24.226562 281.25 L 28.527344 257.890625 L 8.195312 245.441406 L 17.285156 223.480469 L 0 207.097656 L 13.484375 187.5 L 0 167.902344 L 17.285156 151.519531 L 8.195312 129.558594 L 28.527344 117.109375 L 24.226562 93.75 L 46.71875 85.777344 L 47.394531 62.039062 L 71.0625 58.890625 L 76.683594 35.808594 L 100.492188 37.625 L 110.816406 16.210938 L 133.726562 22.90625 L 148.300781 4.097656 L 169.308594 15.386719 L 187.5 0 " clip-rule="nonzero"/></clipPath></defs><g clip-path="url(#225cfe8abc)"><rect x="-37.5" width="450" fill="#ff0420" y="-37.499999" height="449.999989" fill-opacity="1"/></g><g fill="#ffffff" fill-opacity="1"><g transform="translate(74.683317, 241.70685)"><g><path d="M 46.578125 1.65625 C 40.078125 1.65625 34.179688 0.75 28.890625 -1.0625 C 23.609375 -2.882812 19.257812 -5.664062 15.84375 -9.40625 C 12.4375 -13.15625 10.097656 -17.890625 8.828125 -23.609375 C 7.566406 -29.335938 7.597656 -36.054688 8.921875 -43.765625 C 9.796875 -48.609375 10.726562 -53.257812 11.71875 -57.71875 C 12.71875 -62.175781 13.820312 -66.828125 15.03125 -71.671875 C 18.664062 -86.984375 25.078125 -98.410156 34.265625 -105.953125 C 43.460938 -113.492188 55 -117.265625 68.875 -117.265625 C 75.476562 -117.265625 81.394531 -116.328125 86.625 -114.453125 C 91.851562 -112.578125 96.203125 -109.710938 99.671875 -105.859375 C 103.140625 -102.003906 105.476562 -97.269531 106.6875 -91.65625 C 107.894531 -86.039062 107.84375 -79.378906 106.53125 -71.671875 C 105.644531 -66.828125 104.707031 -62.175781 103.71875 -57.71875 C 102.726562 -53.257812 101.679688 -48.609375 100.578125 -43.765625 C 96.835938 -28.242188 90.367188 -16.789062 81.171875 -9.40625 C 71.984375 -2.03125 60.453125 1.65625 46.578125 1.65625 Z M 47.234375 -12.390625 C 55.929688 -12.390625 63.582031 -14.921875 70.1875 -19.984375 C 76.789062 -25.046875 81.472656 -33.25 84.234375 -44.59375 C 85.441406 -49.550781 86.457031 -53.984375 87.28125 -57.890625 C 88.113281 -61.796875 88.96875 -66.171875 89.84375 -71.015625 C 91.9375 -82.359375 91.082031 -90.5625 87.28125 -95.625 C 83.488281 -100.6875 77.128906 -103.21875 68.203125 -103.21875 C 59.398438 -103.21875 51.75 -100.6875 45.25 -95.625 C 38.757812 -90.5625 34.132812 -82.359375 31.375 -71.015625 C 30.164062 -66.171875 29.117188 -61.796875 28.234375 -57.890625 C 27.359375 -53.984375 26.476562 -49.550781 25.59375 -44.59375 C 23.613281 -33.25 24.492188 -25.046875 28.234375 -19.984375 C 31.984375 -14.921875 38.316406 -12.390625 47.234375 -12.390625 Z M 47.234375 -12.390625 "/></g></g></g><g fill="#ffffff" fill-opacity="1"><g transform="translate(186.489444, 241.70685)"><g><path d="M 7.765625 0 C 6.660156 0 5.832031 -0.351562 5.28125 -1.0625 C 4.726562 -1.78125 4.566406 -2.691406 4.796875 -3.796875 L 27.75 -111.640625 C 27.96875 -112.859375 28.488281 -113.820312 29.3125 -114.53125 C 30.132812 -115.25 31.097656 -115.609375 32.203125 -115.609375 L 67.875 -115.609375 C 75.25 -115.609375 81.742188 -114.644531 87.359375 -112.71875 C 92.984375 -110.789062 97.554688 -107.925781 101.078125 -104.125 C 104.597656 -100.332031 106.988281 -95.628906 108.25 -90.015625 C 109.519531 -84.398438 109.441406 -78.015625 108.015625 -70.859375 C 107.023438 -65.898438 106.144531 -61.546875 105.375 -57.796875 C 104.601562 -54.054688 103.609375 -49.765625 102.390625 -44.921875 C 100.078125 -34.796875 96.773438 -26.398438 92.484375 -19.734375 C 88.191406 -13.078125 82.519531 -8.125 75.46875 -4.875 C 68.425781 -1.625 59.289062 0 48.0625 0 Z M 23.125 -14.03125 L 48.21875 -14.03125 C 55.820312 -14.03125 62.097656 -15.078125 67.046875 -17.171875 C 72.003906 -19.265625 75.992188 -22.625 79.015625 -27.25 C 82.046875 -31.875 84.445312 -37.984375 86.21875 -45.578125 C 86.988281 -48.878906 87.675781 -51.769531 88.28125 -54.25 C 88.882812 -56.726562 89.429688 -59.207031 89.921875 -61.6875 C 90.421875 -64.164062 90.945312 -67 91.5 -70.1875 C 93.59375 -80.875 92.738281 -88.773438 88.9375 -93.890625 C 85.132812 -99.015625 77.507812 -101.578125 66.0625 -101.578125 L 41.78125 -101.578125 Z M 23.125 -14.03125 "/></g></g></g></svg>