<svg xmlns="http://www.w3.org/2000/svg" xmlns:xlink="http://www.w3.org/1999/xlink" width="500" zoomAndPan="magnify" viewBox="0 0 375 374.999991" height="500" preserveAspectRatio="xMidYMid meet" version="1.0"><defs><g/><clipPath id="cd234617ef"><path d="M 187.5 0 L 205.691406 15.386719 L 226.699219 4.097656 L 241.273438 22.90625 L 264.183594 16.210938 L 274.507812 37.625 L 298.316406 35.808594 L 303.9375 58.890625 L 327.605469 62.039062 L 328.28125 85.777344 L 350.773438 93.75 L 346.472656 117.109375 L 366.804688 129.558594 L 357.714844 151.519531 L 375 167.902344 L 361.515625 187.5 L 375 207.097656 L 357.714844 223.480469 L 366.804688 245.441406 L 346.472656 257.890625 L 350.773438 281.25 L 328.28125 289.222656 L 327.605469 312.960938 L 303.9375 316.109375 L 298.316406 339.191406 L 274.507812 337.375 L 264.183594 358.789062 L 241.273438 352.09375 L 226.699219 370.902344 L 205.691406 359.613281 L 187.5 375 L 169.308594 359.613281 L 148.300781 370.902344 L 133.726562 352.09375 L 110.816406 358.789062 L 100.492188 337.375 L 76.683594 339.191406 L 71.0625 316.109375 L 47.394531 312.960938 L 46.71875 289.222656 L 24.226562 281.25 L 28.527344 257.890625 L 8.195312 245.441406 L 17.285156 223.480469 L 0 207.097656 L 13.484375 187.5 L 0 167.902344 L 17.285156 151.519531 L 8.195312 129.558594 L 28.527344 117.109375 L 24.226562 93.75 L 46.71875 85.777344 L 47.394531 62.039062 L 71.0625 58.890625 L 76.683594 35.808594 L 100.492188 37.625 L 110.816406 16.210938 L 133.726562 22.90625 L 148.300781 4.097656 L 169.308594 15.386719 L 187.5 0 " clip-rule="nonzero"/></clipPath></defs><g clip-path="url(#cd234617ef)"><rect x="-37.5" width="450" fill="#ff0420" y="-37.499999" height="449.999989" fill-opacity="1"/></g><g fill="#ffffff" fill-opacity="1"><g transform="translate(56.332032, 169.499989)"><g><path d="M 13.765625 0.484375 C 11.847656 0.484375 10.109375 0.21875 8.546875 -0.3125 C 6.984375 -0.851562 5.695312 -1.675781 4.6875 -2.78125 C 3.675781 -3.882812 2.984375 -5.28125 2.609375 -6.96875 C 2.234375 -8.664062 2.242188 -10.65625 2.640625 -12.9375 C 2.898438 -14.375 3.175781 -15.75 3.46875 -17.0625 C 3.757812 -18.382812 4.082031 -19.757812 4.4375 -21.1875 C 5.519531 -25.71875 7.414062 -29.097656 10.125 -31.328125 C 12.84375 -33.554688 16.253906 -34.671875 20.359375 -34.671875 C 22.316406 -34.671875 24.066406 -34.394531 25.609375 -33.84375 C 27.160156 -33.289062 28.445312 -32.441406 29.46875 -31.296875 C 30.488281 -30.160156 31.175781 -28.757812 31.53125 -27.09375 C 31.894531 -25.4375 31.882812 -23.46875 31.5 -21.1875 C 31.238281 -19.757812 30.957031 -18.382812 30.65625 -17.0625 C 30.363281 -15.75 30.054688 -14.375 29.734375 -12.9375 C 28.628906 -8.351562 26.71875 -4.96875 24 -2.78125 C 21.28125 -0.601562 17.867188 0.484375 13.765625 0.484375 Z M 13.96875 -3.65625 C 16.539062 -3.65625 18.800781 -4.40625 20.75 -5.90625 C 22.707031 -7.40625 24.09375 -9.832031 24.90625 -13.1875 C 25.257812 -14.644531 25.554688 -15.953125 25.796875 -17.109375 C 26.046875 -18.265625 26.300781 -19.5625 26.5625 -21 C 27.175781 -24.351562 26.921875 -26.773438 25.796875 -28.265625 C 24.679688 -29.765625 22.804688 -30.515625 20.171875 -30.515625 C 17.566406 -30.515625 15.300781 -29.765625 13.375 -28.265625 C 11.457031 -26.773438 10.09375 -24.351562 9.28125 -21 C 8.914062 -19.5625 8.601562 -18.265625 8.34375 -17.109375 C 8.082031 -15.953125 7.820312 -14.644531 7.5625 -13.1875 C 6.976562 -9.832031 7.238281 -7.40625 8.34375 -5.90625 C 9.457031 -4.40625 11.332031 -3.65625 13.96875 -3.65625 Z M 13.96875 -3.65625 "/></g></g></g><g fill="#ffffff" fill-opacity="1"><g transform="translate(89.391379, 169.499989)"><g><path d="M 2.296875 0 C 1.972656 0 1.726562 -0.101562 1.5625 -0.3125 C 1.394531 -0.53125 1.347656 -0.800781 1.421875 -1.125 L 8.203125 -33.015625 C 8.265625 -33.367188 8.414062 -33.648438 8.65625 -33.859375 C 8.90625 -34.078125 9.191406 -34.1875 9.515625 -34.1875 L 21.578125 -34.1875 C 23.429688 -34.1875 25.066406 -33.960938 26.484375 -33.515625 C 27.898438 -33.078125 29.046875 -32.414062 29.921875 -31.53125 C 30.804688 -30.65625 31.398438 -29.566406 31.703125 -28.265625 C 32.015625 -26.960938 31.992188 -25.453125 31.640625 -23.734375 C 30.890625 -20.285156 29.34375 -17.6875 27 -15.9375 C 24.65625 -14.195312 21.644531 -13.328125 17.96875 -13.328125 L 8.890625 -13.328125 L 6.296875 -1.125 C 6.234375 -0.800781 6.078125 -0.53125 5.828125 -0.3125 C 5.585938 -0.101562 5.289062 0 4.9375 0 Z M 9.71875 -17.4375 L 17.875 -17.4375 C 20.15625 -17.4375 22.09375 -17.972656 23.6875 -19.046875 C 25.28125 -20.117188 26.304688 -21.679688 26.765625 -23.734375 C 27.023438 -25.097656 27.070312 -26.242188 26.90625 -27.171875 C 26.738281 -28.097656 26.195312 -28.8125 25.28125 -29.3125 C 24.375 -29.820312 22.976562 -30.078125 21.09375 -30.078125 L 12.40625 -30.078125 Z M 9.71875 -17.4375 "/></g></g></g><g fill="#ffffff" fill-opacity="1"><g transform="translate(120.790428, 169.499989)"><g><path d="M 9.671875 0 C 9.304688 0 9.039062 -0.101562 8.875 -0.3125 C 8.71875 -0.53125 8.671875 -0.800781 8.734375 -1.125 L 14.84375 -29.828125 L 5.46875 -29.828125 C 5.144531 -29.828125 4.898438 -29.929688 4.734375 -30.140625 C 4.578125 -30.359375 4.53125 -30.628906 4.59375 -30.953125 L 5.03125 -33.015625 C 5.09375 -33.367188 5.242188 -33.648438 5.484375 -33.859375 C 5.734375 -34.078125 6.035156 -34.1875 6.390625 -34.1875 L 29.9375 -34.1875 C 30.289062 -34.1875 30.539062 -34.078125 30.6875 -33.859375 C 30.832031 -33.648438 30.875 -33.367188 30.8125 -33.015625 L 30.375 -30.953125 C 30.3125 -30.628906 30.15625 -30.359375 29.90625 -30.140625 C 29.664062 -29.929688 29.363281 -29.828125 29 -29.828125 L 19.671875 -29.828125 L 13.578125 -1.125 C 13.515625 -0.800781 13.359375 -0.53125 13.109375 -0.3125 C 12.867188 -0.101562 12.566406 0 12.203125 0 Z M 9.671875 0 "/></g></g></g><g fill="#ffffff" fill-opacity="1"><g transform="translate(148.820063, 169.499989)"><g><path d="M 2.296875 0 C 1.941406 0 1.679688 -0.101562 1.515625 -0.3125 C 1.347656 -0.53125 1.300781 -0.800781 1.375 -1.125 L 8.203125 -33.0625 C 8.265625 -33.382812 8.414062 -33.648438 8.65625 -33.859375 C 8.90625 -34.078125 9.191406 -34.1875 9.515625 -34.1875 L 12.15625 -34.1875 C 12.476562 -34.1875 12.726562 -34.078125 12.90625 -33.859375 C 13.09375 -33.648438 13.15625 -33.382812 13.09375 -33.0625 L 6.25 -1.125 C 6.1875 -0.800781 6.03125 -0.53125 5.78125 -0.3125 C 5.539062 -0.101562 5.257812 0 4.9375 0 Z M 2.296875 0 "/></g></g></g><g fill="#ffffff" fill-opacity="1"><g transform="translate(162.200059, 169.499989)"><g><path d="M 2.34375 0 C 2.019531 0 1.765625 -0.101562 1.578125 -0.3125 C 1.398438 -0.53125 1.347656 -0.800781 1.421875 -1.125 L 8.203125 -33.015625 C 8.265625 -33.367188 8.425781 -33.648438 8.6875 -33.859375 C 8.945312 -34.078125 9.242188 -34.1875 9.578125 -34.1875 L 12.0625 -34.1875 C 12.445312 -34.1875 12.710938 -34.085938 12.859375 -33.890625 C 13.015625 -33.691406 13.125 -33.53125 13.1875 -33.40625 L 19.28125 -13.671875 L 33.890625 -33.40625 C 33.953125 -33.53125 34.085938 -33.691406 34.296875 -33.890625 C 34.515625 -34.085938 34.816406 -34.1875 35.203125 -34.1875 L 37.640625 -34.1875 C 38.003906 -34.1875 38.265625 -34.078125 38.421875 -33.859375 C 38.585938 -33.648438 38.640625 -33.367188 38.578125 -33.015625 L 31.78125 -1.125 C 31.71875 -0.800781 31.5625 -0.53125 31.3125 -0.3125 C 31.070312 -0.101562 30.773438 0 30.421875 0 L 28.03125 0 C 27.707031 0 27.453125 -0.101562 27.265625 -0.3125 C 27.085938 -0.53125 27.03125 -0.800781 27.09375 -1.125 L 32.078125 -24.515625 L 20.90625 -9.234375 C 20.675781 -8.941406 20.421875 -8.695312 20.140625 -8.5 C 19.867188 -8.300781 19.519531 -8.203125 19.09375 -8.203125 L 17.625 -8.203125 C 17.207031 -8.203125 16.898438 -8.289062 16.703125 -8.46875 C 16.503906 -8.644531 16.359375 -8.898438 16.265625 -9.234375 L 11.28125 -25.53125 L 6.109375 -1.125 C 6.035156 -0.800781 5.878906 -0.53125 5.640625 -0.3125 C 5.398438 -0.101562 5.113281 0 4.78125 0 Z M 2.34375 0 "/></g></g></g><g fill="#ffffff" fill-opacity="1"><g transform="translate(201.11925, 169.499989)"><g><path d="M 2.296875 0 C 1.941406 0 1.679688 -0.101562 1.515625 -0.3125 C 1.347656 -0.53125 1.300781 -0.800781 1.375 -1.125 L 8.203125 -33.0625 C 8.265625 -33.382812 8.414062 -33.648438 8.65625 -33.859375 C 8.90625 -34.078125 9.191406 -34.1875 9.515625 -34.1875 L 12.15625 -34.1875 C 12.476562 -34.1875 12.726562 -34.078125 12.90625 -33.859375 C 13.09375 -33.648438 13.15625 -33.382812 13.09375 -33.0625 L 6.25 -1.125 C 6.1875 -0.800781 6.03125 -0.53125 5.78125 -0.3125 C 5.539062 -0.101562 5.257812 0 4.9375 0 Z M 2.296875 0 "/></g></g></g><g fill="#ffffff" fill-opacity="1"><g transform="translate(214.499246, 169.499989)"><g><path d="M 12.453125 0.484375 C 9.617188 0.484375 7.304688 0.0625 5.515625 -0.78125 C 3.722656 -1.625 2.425781 -2.742188 1.625 -4.140625 C 0.832031 -5.546875 0.550781 -7.03125 0.78125 -8.59375 C 0.8125 -8.851562 0.925781 -9.085938 1.125 -9.296875 C 1.320312 -9.515625 1.566406 -9.625 1.859375 -9.625 L 4.546875 -9.625 C 4.898438 -9.625 5.148438 -9.523438 5.296875 -9.328125 C 5.441406 -9.128906 5.546875 -8.898438 5.609375 -8.640625 C 5.609375 -7.859375 5.84375 -7.082031 6.3125 -6.3125 C 6.789062 -5.550781 7.539062 -4.914062 8.5625 -4.40625 C 9.59375 -3.90625 10.953125 -3.65625 12.640625 -3.65625 C 15.441406 -3.65625 17.640625 -4.148438 19.234375 -5.140625 C 20.828125 -6.140625 21.804688 -7.46875 22.171875 -9.125 C 22.429688 -10.269531 22.285156 -11.191406 21.734375 -11.890625 C 21.179688 -12.585938 20.242188 -13.210938 18.921875 -13.765625 C 17.597656 -14.316406 15.863281 -14.921875 13.71875 -15.578125 C 11.507812 -16.265625 9.71875 -17.046875 8.34375 -17.921875 C 6.976562 -18.796875 6.050781 -19.875 5.5625 -21.15625 C 5.070312 -22.445312 5.023438 -24.019531 5.421875 -25.875 C 6.003906 -28.507812 7.4375 -30.632812 9.71875 -32.25 C 12 -33.863281 15.007812 -34.671875 18.75 -34.671875 C 20.738281 -34.671875 22.445312 -34.398438 23.875 -33.859375 C 25.3125 -33.328125 26.484375 -32.613281 27.390625 -31.71875 C 28.304688 -30.820312 28.929688 -29.859375 29.265625 -28.828125 C 29.609375 -27.804688 29.703125 -26.804688 29.546875 -25.828125 C 29.515625 -25.597656 29.414062 -25.378906 29.25 -25.171875 C 29.082031 -24.960938 28.820312 -24.859375 28.46875 -24.859375 L 25.6875 -24.859375 C 25.488281 -24.859375 25.273438 -24.921875 25.046875 -25.046875 C 24.816406 -25.179688 24.6875 -25.425781 24.65625 -25.78125 C 24.757812 -27.113281 24.238281 -28.234375 23.09375 -29.140625 C 21.957031 -30.054688 20.445312 -30.515625 18.5625 -30.515625 C 16.476562 -30.515625 14.65625 -30.109375 13.09375 -29.296875 C 11.53125 -28.484375 10.550781 -27.210938 10.15625 -25.484375 C 9.925781 -24.378906 10.039062 -23.457031 10.5 -22.71875 C 10.957031 -21.988281 11.785156 -21.347656 12.984375 -20.796875 C 14.191406 -20.242188 15.820312 -19.660156 17.875 -19.046875 C 20.3125 -18.328125 22.257812 -17.523438 23.71875 -16.640625 C 25.1875 -15.765625 26.195312 -14.703125 26.75 -13.453125 C 27.3125 -12.203125 27.394531 -10.648438 27 -8.796875 C 26.351562 -5.734375 24.765625 -3.421875 22.234375 -1.859375 C 19.710938 -0.296875 16.453125 0.484375 12.453125 0.484375 Z M 12.453125 0.484375 "/></g></g></g><g fill="#ffffff" fill-opacity="1"><g transform="translate(244.775161, 169.499989)"><g><path d="M 9.671875 0 C 9.304688 0 9.039062 -0.101562 8.875 -0.3125 C 8.71875 -0.53125 8.671875 -0.800781 8.734375 -1.125 L 14.84375 -29.828125 L 5.46875 -29.828125 C 5.144531 -29.828125 4.898438 -29.929688 4.734375 -30.140625 C 4.578125 -30.359375 4.53125 -30.628906 4.59375 -30.953125 L 5.03125 -33.015625 C 5.09375 -33.367188 5.242188 -33.648438 5.484375 -33.859375 C 5.734375 -34.078125 6.035156 -34.1875 6.390625 -34.1875 L 29.9375 -34.1875 C 30.289062 -34.1875 30.539062 -34.078125 30.6875 -33.859375 C 30.832031 -33.648438 30.875 -33.367188 30.8125 -33.015625 L 30.375 -30.953125 C 30.3125 -30.628906 30.15625 -30.359375 29.90625 -30.140625 C 29.664062 -29.929688 29.363281 -29.828125 29 -29.828125 L 19.671875 -29.828125 L 13.578125 -1.125 C 13.515625 -0.800781 13.359375 -0.53125 13.109375 -0.3125 C 12.867188 -0.101562 12.566406 0 12.203125 0 Z M 9.671875 0 "/></g></g></g><g fill="#ffffff" fill-opacity="1"><g transform="translate(272.804796, 169.499989)"><g><path d="M 2.296875 0 C 1.941406 0 1.679688 -0.101562 1.515625 -0.3125 C 1.347656 -0.53125 1.300781 -0.800781 1.375 -1.125 L 8.203125 -33.0625 C 8.265625 -33.382812 8.414062 -33.648438 8.65625 -33.859375 C 8.90625 -34.078125 9.191406 -34.1875 9.515625 -34.1875 L 12.15625 -34.1875 C 12.476562 -34.1875 12.726562 -34.078125 12.90625 -33.859375 C 13.09375 -33.648438 13.15625 -33.382812 13.09375 -33.0625 L 6.25 -1.125 C 6.1875 -0.800781 6.03125 -0.53125 5.78125 -0.3125 C 5.539062 -0.101562 5.257812 0 4.9375 0 Z M 2.296875 0 "/></g></g></g><g fill="#ffffff" fill-opacity="1"><g transform="translate(286.184792, 169.499989)"><g><path d="M 13.875 0.484375 C 11.65625 0.484375 9.753906 0.175781 8.171875 -0.4375 C 6.597656 -1.0625 5.347656 -1.96875 4.421875 -3.15625 C 3.492188 -4.34375 2.875 -5.738281 2.5625 -7.34375 C 2.25 -8.957031 2.273438 -10.757812 2.640625 -12.75 C 2.867188 -14.082031 3.148438 -15.515625 3.484375 -17.046875 C 3.828125 -18.578125 4.164062 -20.039062 4.5 -21.4375 C 5.144531 -24.070312 6.132812 -26.378906 7.46875 -28.359375 C 8.800781 -30.347656 10.539062 -31.894531 12.6875 -33 C 14.84375 -34.113281 17.414062 -34.671875 20.40625 -34.671875 C 22.65625 -34.671875 24.582031 -34.375 26.1875 -33.78125 C 27.800781 -33.195312 29.097656 -32.382812 30.078125 -31.34375 C 31.054688 -30.300781 31.722656 -29.128906 32.078125 -27.828125 C 32.441406 -26.523438 32.492188 -25.175781 32.234375 -23.78125 C 32.191406 -23.488281 32.085938 -23.242188 31.921875 -23.046875 C 31.765625 -22.847656 31.539062 -22.75 31.25 -22.75 L 28.46875 -22.75 C 28.144531 -22.75 27.875 -22.832031 27.65625 -23 C 27.445312 -23.164062 27.34375 -23.457031 27.34375 -23.875 C 27.539062 -26.320312 26.972656 -28.039062 25.640625 -29.03125 C 24.304688 -30.019531 22.5 -30.515625 20.21875 -30.515625 C 17.613281 -30.515625 15.34375 -29.773438 13.40625 -28.296875 C 11.46875 -26.816406 10.109375 -24.445312 9.328125 -21.1875 C 8.640625 -18.519531 8.050781 -15.785156 7.5625 -12.984375 C 6.976562 -9.734375 7.265625 -7.363281 8.421875 -5.875 C 9.578125 -4.394531 11.457031 -3.65625 14.0625 -3.65625 C 16.34375 -3.65625 18.359375 -4.128906 20.109375 -5.078125 C 21.867188 -6.023438 23.304688 -7.765625 24.421875 -10.296875 C 24.609375 -10.722656 24.804688 -11.015625 25.015625 -11.171875 C 25.234375 -11.335938 25.488281 -11.421875 25.78125 -11.421875 L 28.5625 -11.421875 C 28.851562 -11.421875 29.082031 -11.332031 29.25 -11.15625 C 29.414062 -10.976562 29.460938 -10.742188 29.390625 -10.453125 C 29.003906 -9.085938 28.425781 -7.753906 27.65625 -6.453125 C 26.894531 -5.148438 25.882812 -3.976562 24.625 -2.9375 C 23.375 -1.894531 21.867188 -1.0625 20.109375 -0.4375 C 18.359375 0.175781 16.28125 0.484375 13.875 0.484375 Z M 13.875 0.484375 "/></g></g></g><g fill="#ffffff" fill-opacity="1"><g transform="translate(79.406249, 237.749984)"><g><path d="M 2.296875 0 C 1.972656 0 1.726562 -0.101562 1.5625 -0.3125 C 1.394531 -0.53125 1.347656 -0.800781 1.421875 -1.125 L 8.203125 -33.015625 C 8.265625 -33.367188 8.414062 -33.648438 8.65625 -33.859375 C 8.90625 -34.078125 9.191406 -34.1875 9.515625 -34.1875 L 20.0625 -34.1875 C 22.25 -34.1875 24.171875 -33.898438 25.828125 -33.328125 C 27.492188 -32.753906 28.847656 -31.90625 29.890625 -30.78125 C 30.929688 -29.664062 31.632812 -28.273438 32 -26.609375 C 32.375 -24.953125 32.351562 -23.066406 31.9375 -20.953125 C 31.644531 -19.484375 31.382812 -18.195312 31.15625 -17.09375 C 30.925781 -15.988281 30.632812 -14.71875 30.28125 -13.28125 C 29.59375 -10.289062 28.613281 -7.804688 27.34375 -5.828125 C 26.070312 -3.859375 24.394531 -2.394531 22.3125 -1.4375 C 20.226562 -0.476562 17.523438 0 14.203125 0 Z M 6.84375 -4.15625 L 14.265625 -4.15625 C 16.503906 -4.15625 18.351562 -4.460938 19.8125 -5.078125 C 21.28125 -5.691406 22.460938 -6.679688 23.359375 -8.046875 C 24.253906 -9.421875 24.960938 -11.234375 25.484375 -13.484375 C 25.710938 -14.453125 25.914062 -15.300781 26.09375 -16.03125 C 26.28125 -16.769531 26.445312 -17.503906 26.59375 -18.234375 C 26.738281 -18.972656 26.890625 -19.8125 27.046875 -20.75 C 27.671875 -23.90625 27.421875 -26.238281 26.296875 -27.75 C 25.171875 -29.269531 22.914062 -30.03125 19.53125 -30.03125 L 12.359375 -30.03125 Z M 6.84375 -4.15625 "/></g></g></g><g fill="#ffffff" fill-opacity="1"><g transform="translate(113.051579, 237.749984)"><g><path d="M 13.765625 0.484375 C 11.847656 0.484375 10.109375 0.21875 8.546875 -0.3125 C 6.984375 -0.851562 5.695312 -1.675781 4.6875 -2.78125 C 3.675781 -3.882812 2.984375 -5.28125 2.609375 -6.96875 C 2.234375 -8.664062 2.242188 -10.65625 2.640625 -12.9375 C 2.898438 -14.375 3.175781 -15.75 3.46875 -17.0625 C 3.757812 -18.382812 4.082031 -19.757812 4.4375 -21.1875 C 5.519531 -25.71875 7.414062 -29.097656 10.125 -31.328125 C 12.84375 -33.554688 16.253906 -34.671875 20.359375 -34.671875 C 22.316406 -34.671875 24.066406 -34.394531 25.609375 -33.84375 C 27.160156 -33.289062 28.445312 -32.441406 29.46875 -31.296875 C 30.488281 -30.160156 31.175781 -28.757812 31.53125 -27.09375 C 31.894531 -25.4375 31.882812 -23.46875 31.5 -21.1875 C 31.238281 -19.757812 30.957031 -18.382812 30.65625 -17.0625 C 30.363281 -15.75 30.054688 -14.375 29.734375 -12.9375 C 28.628906 -8.351562 26.71875 -4.96875 24 -2.78125 C 21.28125 -0.601562 17.867188 0.484375 13.765625 0.484375 Z M 13.96875 -3.65625 C 16.539062 -3.65625 18.800781 -4.40625 20.75 -5.90625 C 22.707031 -7.40625 24.09375 -9.832031 24.90625 -13.1875 C 25.257812 -14.644531 25.554688 -15.953125 25.796875 -17.109375 C 26.046875 -18.265625 26.300781 -19.5625 26.5625 -21 C 27.175781 -24.351562 26.921875 -26.773438 25.796875 -28.265625 C 24.679688 -29.765625 22.804688 -30.515625 20.171875 -30.515625 C 17.566406 -30.515625 15.300781 -29.765625 13.375 -28.265625 C 11.457031 -26.773438 10.09375 -24.351562 9.28125 -21 C 8.914062 -19.5625 8.601562 -18.265625 8.34375 -17.109375 C 8.082031 -15.953125 7.820312 -14.644531 7.5625 -13.1875 C 6.976562 -9.832031 7.238281 -7.40625 8.34375 -5.90625 C 9.457031 -4.40625 11.332031 -3.65625 13.96875 -3.65625 Z M 13.96875 -3.65625 "/></g></g></g><g fill="#ffffff" fill-opacity="1"><g transform="translate(146.110926, 237.749984)"><g><path d="M 2.34375 0 C 2.019531 0 1.765625 -0.101562 1.578125 -0.3125 C 1.398438 -0.53125 1.347656 -0.800781 1.421875 -1.125 L 8.203125 -33.015625 C 8.265625 -33.367188 8.425781 -33.648438 8.6875 -33.859375 C 8.945312 -34.078125 9.242188 -34.1875 9.578125 -34.1875 L 12.0625 -34.1875 C 12.445312 -34.1875 12.710938 -34.085938 12.859375 -33.890625 C 13.015625 -33.691406 13.125 -33.53125 13.1875 -33.40625 L 19.28125 -13.671875 L 33.890625 -33.40625 C 33.953125 -33.53125 34.085938 -33.691406 34.296875 -33.890625 C 34.515625 -34.085938 34.816406 -34.1875 35.203125 -34.1875 L 37.640625 -34.1875 C 38.003906 -34.1875 38.265625 -34.078125 38.421875 -33.859375 C 38.585938 -33.648438 38.640625 -33.367188 38.578125 -33.015625 L 31.78125 -1.125 C 31.71875 -0.800781 31.5625 -0.53125 31.3125 -0.3125 C 31.070312 -0.101562 30.773438 0 30.421875 0 L 28.03125 0 C 27.707031 0 27.453125 -0.101562 27.265625 -0.3125 C 27.085938 -0.53125 27.03125 -0.800781 27.09375 -1.125 L 32.078125 -24.515625 L 20.90625 -9.234375 C 20.675781 -8.941406 20.421875 -8.695312 20.140625 -8.5 C 19.867188 -8.300781 19.519531 -8.203125 19.09375 -8.203125 L 17.625 -8.203125 C 17.207031 -8.203125 16.898438 -8.289062 16.703125 -8.46875 C 16.503906 -8.644531 16.359375 -8.898438 16.265625 -9.234375 L 11.28125 -25.53125 L 6.109375 -1.125 C 6.035156 -0.800781 5.878906 -0.53125 5.640625 -0.3125 C 5.398438 -0.101562 5.113281 0 4.78125 0 Z M 2.34375 0 "/></g></g></g><g fill="#ffffff" fill-opacity="1"><g transform="translate(185.030117, 237.749984)"><g><path d="M -1.03125 0 C -1.445312 0 -1.726562 -0.171875 -1.875 -0.515625 C -2.019531 -0.859375 -2 -1.191406 -1.8125 -1.515625 L 17 -33.109375 C 17.1875 -33.429688 17.414062 -33.691406 17.6875 -33.890625 C 17.96875 -34.085938 18.320312 -34.1875 18.75 -34.1875 L 22.46875 -34.1875 C 22.914062 -34.1875 23.238281 -34.085938 23.4375 -33.890625 C 23.632812 -33.691406 23.75 -33.429688 23.78125 -33.109375 L 29.15625 -1.515625 C 29.25 -1.023438 29.195312 -0.648438 29 -0.390625 C 28.8125 -0.128906 28.550781 0 28.21875 0 L 25.734375 0 C 25.378906 0 25.101562 -0.0859375 24.90625 -0.265625 C 24.707031 -0.441406 24.578125 -0.710938 24.515625 -1.078125 L 23.25 -7.765625 L 7.234375 -7.765625 L 3.03125 -0.828125 C 2.894531 -0.597656 2.703125 -0.398438 2.453125 -0.234375 C 2.210938 -0.078125 1.929688 0 1.609375 0 Z M 9.515625 -11.96875 L 22.75 -11.96875 L 19.828125 -29.296875 Z M 9.515625 -11.96875 "/></g></g></g><g fill="#ffffff" fill-opacity="1"><g transform="translate(217.894136, 237.749984)"><g><path d="M 2.296875 0 C 1.941406 0 1.679688 -0.101562 1.515625 -0.3125 C 1.347656 -0.53125 1.300781 -0.800781 1.375 -1.125 L 8.203125 -33.0625 C 8.265625 -33.382812 8.414062 -33.648438 8.65625 -33.859375 C 8.90625 -34.078125 9.191406 -34.1875 9.515625 -34.1875 L 12.15625 -34.1875 C 12.476562 -34.1875 12.726562 -34.078125 12.90625 -33.859375 C 13.09375 -33.648438 13.15625 -33.382812 13.09375 -33.0625 L 6.25 -1.125 C 6.1875 -0.800781 6.03125 -0.53125 5.78125 -0.3125 C 5.539062 -0.101562 5.257812 0 4.9375 0 Z M 2.296875 0 "/></g></g></g><g fill="#ffffff" fill-opacity="1"><g transform="translate(231.274132, 237.749984)"><g><path d="M 2.296875 0 C 1.972656 0 1.726562 -0.101562 1.5625 -0.3125 C 1.394531 -0.53125 1.347656 -0.800781 1.421875 -1.125 L 8.203125 -33.015625 C 8.265625 -33.367188 8.410156 -33.648438 8.640625 -33.859375 C 8.867188 -34.078125 9.160156 -34.1875 9.515625 -34.1875 L 11.765625 -34.1875 C 12.128906 -34.1875 12.390625 -34.101562 12.546875 -33.9375 C 12.710938 -33.769531 12.8125 -33.625 12.84375 -33.5 L 23.78125 -8.296875 L 29.046875 -33.015625 C 29.117188 -33.367188 29.285156 -33.648438 29.546875 -33.859375 C 29.804688 -34.078125 30.097656 -34.1875 30.421875 -34.1875 L 32.8125 -34.1875 C 33.164062 -34.1875 33.414062 -34.078125 33.5625 -33.859375 C 33.71875 -33.648438 33.757812 -33.367188 33.6875 -33.015625 L 26.90625 -1.171875 C 26.84375 -0.847656 26.695312 -0.570312 26.46875 -0.34375 C 26.238281 -0.113281 25.945312 0 25.59375 0 L 23.34375 0 C 22.976562 0 22.722656 -0.078125 22.578125 -0.234375 C 22.429688 -0.398438 22.328125 -0.550781 22.265625 -0.6875 L 11.328125 -25.59375 L 6.109375 -1.125 C 6.035156 -0.800781 5.878906 -0.53125 5.640625 -0.3125 C 5.398438 -0.101562 5.097656 0 4.734375 0 Z M 2.296875 0 "/></g></g></g><g fill="#ffffff" fill-opacity="1"><g transform="translate(265.310118, 237.749984)"><g><path d="M 12.453125 0.484375 C 9.617188 0.484375 7.304688 0.0625 5.515625 -0.78125 C 3.722656 -1.625 2.425781 -2.742188 1.625 -4.140625 C 0.832031 -5.546875 0.550781 -7.03125 0.78125 -8.59375 C 0.8125 -8.851562 0.925781 -9.085938 1.125 -9.296875 C 1.320312 -9.515625 1.566406 -9.625 1.859375 -9.625 L 4.546875 -9.625 C 4.898438 -9.625 5.148438 -9.523438 5.296875 -9.328125 C 5.441406 -9.128906 5.546875 -8.898438 5.609375 -8.640625 C 5.609375 -7.859375 5.84375 -7.082031 6.3125 -6.3125 C 6.789062 -5.550781 7.539062 -4.914062 8.5625 -4.40625 C 9.59375 -3.90625 10.953125 -3.65625 12.640625 -3.65625 C 15.441406 -3.65625 17.640625 -4.148438 19.234375 -5.140625 C 20.828125 -6.140625 21.804688 -7.46875 22.171875 -9.125 C 22.429688 -10.269531 22.285156 -11.191406 21.734375 -11.890625 C 21.179688 -12.585938 20.242188 -13.210938 18.921875 -13.765625 C 17.597656 -14.316406 15.863281 -14.921875 13.71875 -15.578125 C 11.507812 -16.265625 9.71875 -17.046875 8.34375 -17.921875 C 6.976562 -18.796875 6.050781 -19.875 5.5625 -21.15625 C 5.070312 -22.445312 5.023438 -24.019531 5.421875 -25.875 C 6.003906 -28.507812 7.4375 -30.632812 9.71875 -32.25 C 12 -33.863281 15.007812 -34.671875 18.75 -34.671875 C 20.738281 -34.671875 22.445312 -34.398438 23.875 -33.859375 C 25.3125 -33.328125 26.484375 -32.613281 27.390625 -31.71875 C 28.304688 -30.820312 28.929688 -29.859375 29.265625 -28.828125 C 29.609375 -27.804688 29.703125 -26.804688 29.546875 -25.828125 C 29.515625 -25.597656 29.414062 -25.378906 29.25 -25.171875 C 29.082031 -24.960938 28.820312 -24.859375 28.46875 -24.859375 L 25.6875 -24.859375 C 25.488281 -24.859375 25.273438 -24.921875 25.046875 -25.046875 C 24.816406 -25.179688 24.6875 -25.425781 24.65625 -25.78125 C 24.757812 -27.113281 24.238281 -28.234375 23.09375 -29.140625 C 21.957031 -30.054688 20.445312 -30.515625 18.5625 -30.515625 C 16.476562 -30.515625 14.65625 -30.109375 13.09375 -29.296875 C 11.53125 -28.484375 10.550781 -27.210938 10.15625 -25.484375 C 9.925781 -24.378906 10.039062 -23.457031 10.5 -22.71875 C 10.957031 -21.988281 11.785156 -21.347656 12.984375 -20.796875 C 14.191406 -20.242188 15.820312 -19.660156 17.875 -19.046875 C 20.3125 -18.328125 22.257812 -17.523438 23.71875 -16.640625 C 25.1875 -15.765625 26.195312 -14.703125 26.75 -13.453125 C 27.3125 -12.203125 27.394531 -10.648438 27 -8.796875 C 26.351562 -5.734375 24.765625 -3.421875 22.234375 -1.859375 C 19.710938 -0.296875 16.453125 0.484375 12.453125 0.484375 Z M 12.453125 0.484375 "/></g></g></g></svg>